<svg width="85" height="81" viewBox="0 0 85 81" fill="none" xmlns="http://www.w3.org/2000/svg">
<path d="M0.0574667 73.8738C0.135573 73.0961 0.547706 71.6718 0.800306 70.8841C2.64828 65.1009 8.34009 60.9928 14.3111 60.4361L11.9048 59.778C0.182102 55.0467 6.14812 37.358 18.4159 40.9892C27.4214 43.6548 27.7322 56.4776 19.0391 59.778L16.6327 60.4361C20.4267 60.8466 23.8202 62.3622 26.637 64.9048C30.1867 60.6255 35.3185 57.4398 40.997 57.2869C41.0336 56.8548 41.0203 57.011 40.7477 56.9612C25.2028 54.0978 25.8992 33.3231 40.1378 30.802C52.1729 28.6715 60.527 42.6577 52.7612 52.2232C50.4346 55.0899 47.794 56.3031 44.231 56.9595C43.9584 57.0094 43.9451 56.8532 43.9817 57.2852C49.6586 57.4414 54.8086 60.6039 58.3417 64.9031C61.1602 62.3622 64.552 60.8449 68.346 60.4361L65.9396 59.778C57.2482 56.4792 57.5589 43.6548 66.5628 40.9892C78.8306 37.3564 84.7966 55.0451 73.0739 59.778L70.6676 60.4361C78.101 61.144 84.436 67.0054 84.9295 74.6117C84.991 75.5573 85.0691 78.2544 84.8863 79.0621C84.76 79.6205 83.9524 80.3484 83.3508 80.345L1.78744 80.3484C0.948211 80.4065 0.529427 79.7351 0.0541398 79.1801C0.178778 77.475 -0.115368 75.5473 0.0541398 73.8721L0.0574667 73.8738ZM41.4607 33.9496C28.706 35.2159 30.2947 54.716 43.2322 53.802C56.3126 52.878 54.8036 32.6267 41.4607 33.9496ZM14.7714 43.8991C6.26279 44.828 7.44436 57.6459 15.8832 57.1174C24.7226 56.5657 23.6091 42.9335 14.7714 43.8991ZM68.808 43.8991C60.2993 44.828 61.4809 57.6459 69.9198 57.1174C78.7591 56.5657 77.6457 42.9335 68.808 43.8991ZM59.0662 77.0247C59.0513 70.4039 55.0678 64.3846 49.0137 61.7888C38.0173 57.0742 25.9789 65.2272 25.9141 77.0247H59.0646H59.0662ZM22.5987 77.0247C22.5987 73.8007 23.5044 70.7911 24.7309 67.8546C19.5958 61.98 9.80418 62.54 5.38866 69.0096C4.64249 70.1031 3.37119 72.8385 3.37119 74.1214V77.0247H22.5987ZM81.6075 77.0247V74.1214C81.6075 72.8385 80.3362 70.1031 79.59 69.0096C75.1745 62.5383 65.3829 61.9783 60.2478 67.8546C61.4743 70.7927 62.3816 73.8007 62.38 77.0247H81.6075Z" fill="#5F0C66"/>
<path d="M37.8061 8.14933L41.0916 1.40223C41.9325 0.363575 43.2886 0.554687 43.955 1.66979L47.1407 8.10113C47.3268 8.22577 47.5429 8.26233 47.7539 8.31551C49.7232 8.81407 52.3755 8.70937 54.3016 9.22787C55.6477 9.59015 56.1031 10.9711 55.2289 12.0663L50.039 17.1399L51.2804 24.3739C50.491 28.7546 44.7194 23.1591 42.4061 22.6838L36.0296 26.0275C34.7317 26.3632 33.7313 25.9743 33.5967 24.5634L34.8464 17.0917L29.5601 11.925C28.8089 10.7634 29.2211 9.63668 30.5489 9.26443C31.7122 8.93871 37.384 8.49832 37.8045 8.14933H37.8061ZM50.4461 12.0098C48.6995 11.5894 45.5985 11.9832 44.5067 10.4045L42.3264 6.20331C41.7131 7.22534 40.6778 10.5075 39.8353 11.0925C38.9844 11.6841 34.7932 11.7605 34.534 12.0081C34.4708 12.284 34.622 12.3438 34.7849 12.5017C35.6524 13.3443 38.0986 15.1873 38.2798 16.3173C38.416 17.1732 37.3225 21.1965 37.5186 21.4624C38.8249 21.0502 41.1365 19.1242 42.4061 19.1242C43.6758 19.1242 46.0522 21.0104 47.2936 21.4624C47.5346 21.135 46.3912 17.0369 46.6737 15.9467C46.9563 14.8565 49.8462 13.1664 50.4445 12.0098H50.4461Z" fill="#5F0C66"/>
<path d="M17.8359 20.9207C19.4745 21.622 24.5248 20.8343 24.0545 23.6594C23.8651 24.7961 20.9702 26.9299 20.1343 27.8822C20.1775 29.4609 20.8904 31.3056 20.9452 32.8328C20.9835 33.8681 20.1675 34.8287 19.079 34.7007C17.9739 34.5711 14.8612 32.2129 14.0901 32.2811C12.7922 32.6783 10.5886 34.4996 9.38046 34.704C8.72901 34.8154 7.70864 34.3168 7.55077 33.6189C7.21175 32.1082 8.15401 29.5922 8.27699 28.0068L4.45143 24.1131C3.52578 20.6349 8.60438 21.6951 10.6285 20.9307C11.2168 19.7807 12.3136 16.5484 13.324 15.9135C15.737 14.3996 16.8604 19.5713 17.8343 20.9207H17.8359ZM18.7865 24.4488C17.914 24.2527 16.5463 24.3374 15.8085 23.8605C15.167 23.4467 14.6236 21.853 14.3095 21.1301C14.1034 20.9739 13.0482 23.5032 12.7158 23.7608C11.9879 24.3241 10.4075 24.3075 9.5051 24.4471C9.87735 25.1667 11.3664 26.0541 11.5857 26.7588C11.9164 27.8157 11.2617 28.8627 11.4129 29.9213C12.6127 29.4111 13.3922 28.4655 14.8147 28.8377C15.2002 28.9391 16.9468 30.0642 17.1296 29.9179C17.0133 29.1651 16.5347 27.7658 16.6627 27.0595C16.8538 26.0126 18.2746 25.3246 18.7882 24.4471L18.7865 24.4488Z" fill="#5F0C66"/>
<path d="M74.1924 20.9207C75.831 21.622 80.8813 20.8343 80.411 23.6594C80.2216 24.7961 77.3266 26.9299 76.4907 27.8822C76.5339 29.4609 77.2468 31.3056 77.3017 32.8328C77.3399 33.8681 76.5239 34.8287 75.4354 34.7007C74.3303 34.5711 71.2177 32.2129 70.4466 32.2811C69.1487 32.6783 66.9451 34.4996 65.7369 34.704C65.0855 34.8154 64.0651 34.3168 63.9072 33.6189C63.5682 32.1082 64.5105 29.5922 64.6334 28.0068L60.8079 24.1131C59.8822 20.6349 64.9608 21.6951 66.985 20.9307C67.5733 19.7807 68.6701 16.5484 69.6805 15.9135C72.0935 14.3996 73.2169 19.5713 74.1907 20.9207H74.1924ZM75.1446 24.4488C74.2721 24.2527 72.9045 24.3374 72.1666 23.8605C71.5251 23.4467 70.9817 21.853 70.6676 21.1301C70.4615 20.9739 69.4063 23.5032 69.0739 23.7608C68.346 24.3241 66.7656 24.3075 65.8632 24.4471C66.2355 25.1667 67.7245 26.0541 67.9438 26.7588C68.2746 27.8157 67.6198 28.8627 67.771 29.9213C68.9709 29.4111 69.7503 28.4655 71.1728 28.8377C71.5584 28.9391 73.305 30.0642 73.4878 29.9179C73.3714 29.1651 72.8928 27.7658 73.0208 27.0595C73.2119 26.0126 74.6328 25.3246 75.1463 24.4471L75.1446 24.4488Z" fill="#5F0C66"/>
<path d="M48.2441 65.7824C50.117 65.3536 52.8458 68.5294 53.7299 70.0084C54.2999 70.9607 55.1724 72.335 54.0805 73.2806C52.1179 74.979 51.0344 71.7118 50.0356 70.5552C49.3792 69.7957 47.3949 68.4662 47.2886 67.6619C47.1822 66.8576 47.3933 65.9768 48.2441 65.7824Z" fill="#5F0C66"/>
<path d="M42.1121 63.788C43.7091 63.434 45.012 65.6094 43.4017 66.7411C41.228 68.27 39.6692 64.3281 42.1121 63.788Z" fill="#5F0C66"/>
</svg>
