<svg width="85" height="83" viewBox="0 0 85 83" fill="none" xmlns="http://www.w3.org/2000/svg">
<path d="M0 35.3681C0.700894 32.822 2.47975 31.406 5.11697 31.191C5.66926 28.8887 6.46109 26.6262 7.44145 24.4723C8.00261 23.2381 9.02069 21.0775 9.82583 20.0538C10.8018 18.8128 12.1259 19.3291 12.2169 20.7784C10.2229 24.3128 8.41739 27.9691 7.45698 31.94C8.26878 32.4032 8.96745 32.9394 9.32899 33.8391L9.54415 33.8878C12.4608 33.3782 15.3931 32.8175 18.3452 32.545C20.6054 32.3367 22.9543 32.4408 25.1634 32.0575C26.3434 29.8327 28.6236 29.015 31.0545 29.467C33.7206 26.1276 36.5064 22.8813 39.7691 20.0959C39.727 18.9126 38.9839 17.7935 39.5074 16.5216C39.4963 16.1471 37.784 15.2762 37.3603 15.0413C34.1287 13.242 30.48 11.9656 26.9689 10.8177C26.6052 10.8288 26.2303 11.7351 25.9065 12.0653C24.1454 13.8558 21.3662 13.8624 19.2569 12.7168C18.9574 13.0979 18.5316 13.3173 18.1767 13.6298C17.3826 14.33 15.7413 16.6301 14.8607 16.6279C13.9225 16.6279 13.3237 15.6773 13.7029 14.7976C13.9491 14.2281 16.2448 12.0476 16.8481 11.4737C17.1098 11.2255 17.4337 11.0748 17.6887 10.8222C15.453 5.45297 21.8342 0.925813 25.9819 5.12944C37.1763 -0.636421 50.9147 -0.720626 62.2177 4.81921C63.1493 4.56216 63.8768 3.72454 64.8727 3.55391C68.9139 2.86476 71.8018 6.50775 70.7504 10.3613C70.7926 10.5208 72.9352 12.5373 73.1259 12.6481C73.7381 13.0071 74.1462 12.5329 74.7939 12.4708C79.6203 12.0055 82.2398 17.0401 79.3807 20.8183C89.2509 37.0876 85.813 59.4154 71.4668 71.8557C71.2406 72.3099 71.6665 72.8971 71.7241 73.429C72.2365 78.2996 66.6959 81.0806 63.1759 77.7057C51.6311 83.7353 37.2783 83.8217 25.7423 77.7345C21.9695 80.6596 16.8658 78.0979 17.2651 73.265C17.2961 72.8927 17.6599 72.2368 17.5246 72.0241C8.81886 64.481 3.60207 52.8518 3.82831 41.2713C1.85205 40.6509 0.592211 39.3324 0 37.3558V35.3659V35.3681ZM61.0887 7.01742C52.4806 2.88248 42.5971 2.10247 33.4123 4.80148C32.5095 5.06739 27.4746 6.83793 27.2573 7.44288C27.1508 7.73981 27.1109 8.20737 27.4347 8.378C28.1888 8.77244 29.5751 8.99846 30.469 9.32199C34.0089 10.5984 37.4158 12.1916 40.6696 14.0663C42.983 12.2094 45.7755 12.1362 48.0623 14.0752C52.0902 11.7462 56.3665 9.85381 60.8336 8.51317L61.0865 7.0152L61.0887 7.01742ZM21.7056 6.04684C18.7134 6.58309 19.3811 11.2122 22.3155 11.1346C25.7512 11.0438 25.5449 5.35768 21.7056 6.04684ZM65.3695 6.04684C62.6391 6.55207 62.7589 10.9352 65.8885 11.0548C69.5172 11.1945 69.1889 5.34217 65.3695 6.04684ZM71.3692 14.3278L69.1534 12.4753C66.616 14.3167 63.2491 13.7827 61.5944 11.0593L61.3593 10.9862C57.8038 12.0919 54.2772 13.4458 51.0256 15.2673C50.6485 15.4779 49.4264 16.0983 49.3354 16.4085C49.6526 17.7381 49.1779 18.8439 49.056 20.0981C55.0623 25.3476 59.8777 31.8536 63.3666 39.0199L65.5957 39.0731C67.938 34.9759 70.0828 30.7368 71.682 26.2828C72.0546 25.2457 72.8021 23.4264 72.9817 22.4315C73.1614 21.4365 72.048 21.2149 71.4846 20.4238C70.6994 19.3203 70.4088 17.9154 70.604 16.5792C70.7305 15.7127 71.3005 15.1543 71.367 14.3234L71.3692 14.3278ZM74.8338 15.0036C72.4317 15.5022 72.4783 19.5374 74.9713 19.9297C79.1589 20.59 79.0059 14.1372 74.8338 15.0036ZM42.5594 15.8501C40.1617 18.2544 43.9767 21.8531 46.2457 19.451C48.4859 17.08 44.9438 13.4591 42.5594 15.8501ZM41.4592 21.9528C38.334 24.5233 35.7035 27.6234 33.2171 30.8055L34.5301 32.7998C42.3487 33.6463 49.8722 35.8999 57.0586 38.9867C57.8149 39.3124 59.5671 40.3872 60.2237 40.4847C60.736 40.56 60.9845 40.1589 60.8625 39.6781C60.7272 39.1463 59.789 37.5153 59.4651 36.9126C56.4641 31.324 52.0969 26.1343 47.3636 21.9506C45.7822 22.4691 44.6842 22.9744 42.9919 22.5179C42.566 22.4027 41.7698 21.8708 41.457 21.9528H41.4592ZM80.1903 54.773C84.0541 44.2651 83.1159 31.9644 77.3668 22.3362L75.6522 22.4204C73.6627 28.7026 71.0299 34.721 67.7472 40.4271C68.9383 42.0779 69.3553 43.6025 68.976 45.6478C73.0039 48.3246 76.6215 51.5289 80.1903 54.773ZM28.8409 31.9201C26.5053 32.4453 26.4566 36.7375 29.4686 36.8727C33.3679 37.0478 32.9576 30.996 28.8409 31.9201ZM4.77983 33.7438C1.62137 33.9898 1.73227 39.1108 5.22566 38.856C8.47505 38.6189 8.16897 33.4801 4.77983 33.7438ZM20.2217 69.3383C19.9755 64.1331 19.96 59.0631 20.8028 53.911C21.71 48.3668 23.5398 42.9599 26.0107 37.9408C25.6314 37.3801 25.2544 36.8262 24.9927 36.1946C24.7598 35.6318 24.8729 34.8119 24.3228 34.7011L9.98109 36.3808C10.1319 38.8604 8.47062 40.4647 6.30583 41.2868C6.39899 50.1129 9.8214 59.2492 15.2844 66.1319C15.8034 66.7878 18.4495 69.9211 19.0439 70.0098L20.2239 69.3406L20.2217 69.3383ZM22.768 68.8509C23.806 69.1101 24.7487 69.3938 25.5693 70.1161C26.0351 70.5261 26.3079 71.346 26.9024 71.1311C39.8268 66.3291 51.2984 58.0814 59.8555 47.3009C60.0418 46.8732 59.21 45.5791 59.1191 44.8922C59.0282 44.2052 59.1191 43.4983 59.1923 42.8247C51.5313 38.9357 43.1228 36.2478 34.5479 35.388C33.9912 38.3596 30.9392 39.975 28.0646 39.1906C27.448 40.9256 26.583 42.5588 25.9397 44.2872C23.0208 52.1272 22.0449 60.5145 22.7658 68.8553L22.768 68.8509ZM62.3175 45.927C64.6087 48.2094 68.1398 44.7481 66.0038 42.3261C63.7437 39.7623 59.84 43.4607 62.3175 45.927ZM65.8841 69.1744C66.3454 68.6558 66.0926 63.3819 66.2567 62.3316C66.4652 60.9931 68.2928 60.8846 68.6633 62.0634C68.8784 62.7482 68.7764 65.1192 68.7453 65.9768C68.7098 66.9518 68.5191 68.1373 68.4015 69.1234C68.4348 69.5599 69.3908 69.8702 69.7944 70.0076C73.6804 66.533 77.0518 62.2163 79.0103 57.379C76.5306 54.7088 73.7869 52.2602 70.8791 50.0642C70.4732 49.7584 67.8581 47.8061 67.6607 47.8061C67.4633 47.8061 66.7535 48.2449 66.7735 48.5174C67.0507 50.3279 68.3971 53.7958 68.0666 55.5176C67.9025 56.3751 66.6515 56.6211 66.0305 56.1114C65.4094 55.6018 64.9237 50.2348 64.4024 49.1534L62.0092 48.6947C52.9641 59.9051 41.0112 68.7112 27.3903 73.5974L27.0488 75.574C37.713 81.2268 51.0899 81.1714 61.7719 75.5895C61.8806 75.4942 61.7231 73.6838 61.7763 73.2849C62.0314 71.3637 63.9766 69.4735 65.8841 69.1766V69.1744ZM20.4768 75.7845C22.8256 78.1312 26.3346 74.5768 24.1409 72.208C21.7921 69.6707 18.0902 73.4002 20.4768 75.7845ZM65.8641 71.7293C65.1078 71.9022 64.3292 72.9991 64.2516 73.768C63.8834 77.4841 69.0204 77.606 69.2422 74.4394C69.3797 72.4451 67.776 71.295 65.8641 71.7316V71.7293Z" fill="#5F0C66"/>
</svg>
