<svg width="85" height="75" viewBox="0 0 85 75" fill="none" xmlns="http://www.w3.org/2000/svg">
<path d="M84.9978 41.9991C84.5897 43.015 84.0573 43.8955 83.1613 44.5631C82.4892 45.0622 78.2084 47.4333 77.5363 47.5708C75.0699 48.0743 73.3953 46.9298 72.2796 44.8337C71.927 44.7517 69.6468 46.4374 69.4716 46.8166C69.2077 47.3867 70.1326 48.4092 70.3411 49.1012C71.3436 52.4238 69.1322 55.8062 65.7564 56.2942C65.7742 59.4039 63.9132 61.9723 60.7747 62.4359C61.0542 66.6324 57.308 69.3916 53.2978 68.409C52.5991 71.7826 49.0813 73.5526 45.8674 72.4125C44.5765 71.9534 43.6006 70.7645 42.4361 70.0703C39.2887 72.3016 36.6914 76.1654 32.3064 74.1869C30.3545 73.3064 28.7265 70.6958 29.2144 68.5642C26.1491 68.2094 23.9511 65.5078 24.2172 62.4359C21.1009 61.9834 19.1845 59.3795 19.2378 56.292C15.842 55.7552 13.7748 52.6145 14.6154 49.2321C14.8062 48.4602 15.7688 47.3578 15.5204 46.8189C15.3451 46.4396 13.065 44.7517 12.7123 44.836C11.5789 46.9519 9.81559 48.1297 7.3314 47.5331C6.63938 47.3667 1.73311 44.6075 1.21631 44.1018C-0.500443 42.4139 -0.169958 40.5131 0.797101 38.5701C4.54778 31.0355 9.61375 23.7404 13.4731 16.2147C14.6664 14.5845 16.432 13.9146 18.3772 14.5734C19.3021 14.8861 23.5407 17.2261 24.2261 17.8561C25.5015 19.0272 26.0027 21.2186 25.0667 22.7423L29.2965 23.9068C30.0107 23.3967 30.4898 22.9664 31.3149 22.6026C33.8324 21.4869 43.5651 20.6108 46.3576 20.9613C48.926 21.2851 53.9432 24.1109 55.986 23.8647C57.2348 23.7138 58.6809 23.0107 59.9319 22.7423C58.9848 21.1188 59.4816 18.9828 60.8701 17.7895C61.6154 17.1485 65.8008 14.8285 66.7412 14.529C68.0077 14.1254 69.3918 14.3228 70.4742 15.1102C71.2837 15.6979 73.8855 19.9565 74.247 20.9657C74.9546 22.942 73.2533 24.1419 71.612 23.0218L68.8084 18.1045C68.6487 17.9048 68.3826 17.6675 68.1275 17.6409C67.8214 17.6076 63.8511 19.768 63.3632 20.1184C62.9994 20.3802 62.6401 20.6175 62.7776 21.1298L75.6954 44.0441C75.9882 44.3968 76.4761 44.3547 76.8687 44.2548C77.4166 44.1129 80.1159 42.5403 80.7347 42.1389C80.9942 41.9703 81.5776 41.6731 81.6597 41.3892C81.9169 40.5042 78.8317 36.5295 78.5633 35.2431C78.1862 33.4309 80.1625 32.5149 81.4179 33.7171L85 40.3445V42.0058L84.9978 41.9991ZM9.24778 44.1151L22.2144 21.1232C22.2787 20.928 22.241 20.7683 22.1567 20.5864C21.8462 19.9099 17.9336 18.2021 17.0974 17.6586C16.6848 17.5633 16.3255 17.8694 16.1192 18.1998L3.33674 40.9633C3.2702 41.1585 3.30791 41.316 3.38997 41.4979C3.51862 41.7773 6.90333 43.6493 7.45783 43.9133C7.96354 44.1528 8.71989 44.6252 9.24556 44.1173L9.24778 44.1151ZM70.5318 41.9747L61.4889 25.7477C59.4373 26.1736 56.9797 27.4445 54.8637 27.2227C52.3107 26.9543 48.8063 24.723 46.1579 24.3083C44.0553 23.98 34.7041 24.7718 32.8054 25.5836C31.4125 26.1803 31.3748 26.6904 31.9559 28.05C33.9566 32.7367 40.329 29.9087 44.0708 30.2126C46.7568 30.4322 49.1567 31.7918 51.3481 33.2291C56.6581 36.7136 61.6597 41.0609 66.6525 44.9846C67.7903 43.7558 68.9859 42.6734 70.5318 41.9747ZM40.6861 61.4045C42.0302 62.0122 43.2124 63.4717 43.5828 64.9001C43.727 65.459 43.656 66.5569 43.9776 66.9961C44.1307 67.2046 46.7479 69.1742 47.0208 69.2651C48.8262 69.8662 50.4343 68.5864 50.0905 66.6922C49.7889 65.0221 46.535 64.0373 46.3199 62.4891C46.1646 61.3757 46.9099 60.5018 48.0544 60.5838C50.319 60.7458 54.5509 67.666 56.9819 64.3722C57.4233 63.7756 57.532 63.1301 57.3634 62.407C57.0396 61.0141 53.3887 58.8649 52.2109 57.7647C50.3633 56.0436 51.1308 54.1893 53.575 54.5752L59.2887 58.9869C61.3692 59.6878 63.1547 57.4919 61.9946 55.6177C61.3736 54.6129 58.4702 52.8674 57.4322 51.8781C56.8666 51.3392 56.3365 50.9488 56.4429 50.066C56.5782 48.9437 57.7161 48.3693 58.7563 48.7308C59.8764 49.1189 62.2985 51.7739 63.5938 52.5258C64.6829 53.1579 65.9915 53.2134 66.8055 52.1155C67.9256 50.6072 66.9187 49.4738 65.8141 48.4779C63.026 45.9649 59.2909 43.2368 56.2544 40.9367C53.2845 38.6854 47.4777 33.859 43.9 33.533C41.4646 33.3112 39.1224 34.2538 36.7557 34.2028C32.333 34.1074 28.9816 31.5412 28.2185 27.134L23.3966 25.7988L14.4535 41.9725C15.9994 42.6734 17.195 43.7536 18.3328 44.9823C20.797 43.2412 23.2968 39.9475 26.6127 40.1892C28.8219 40.3511 31.295 42.2098 31.5323 44.4877C33.5973 43.9931 35.3916 43.9244 37.1616 45.2485C39.7234 47.1649 39.9386 50.3233 38.4902 53.016C40.7637 54.2714 42.0302 56.7178 41.4513 59.3063C41.3537 59.7454 40.5663 61.2093 40.6816 61.4045H40.6861ZM26.0227 43.5273C25.253 43.5961 24.6764 44.1639 24.0819 44.5898C23.0195 45.3528 18.6234 48.7286 18.0866 49.5515C16.8024 51.5277 18.976 53.8056 21.1918 52.6567C21.9837 52.2463 27.6064 47.7016 28.05 47.0606C29.0969 45.5479 27.9102 43.3565 26.0227 43.5251V43.5273ZM33.3178 47.5153C32.9296 47.5952 32.3907 48.0055 32.0491 48.2384C28.9926 50.33 26.056 53.2799 23.0683 55.5268C21.6754 57.5474 23.8424 59.9584 26.0404 58.8316L35.6866 51.0464C36.738 49.3252 35.4382 47.0739 33.3156 47.5153H33.3178ZM35.4781 55.8151C35.0013 55.9127 34.4468 56.4184 34.0453 56.709C32.7478 57.6428 29.0259 60.3798 28.1431 61.4333C26.5129 63.3785 28.4714 66.0912 30.8558 64.9755C31.9093 64.4831 36.0837 61.0341 37.0951 60.0892C38.0466 59.1998 38.3993 58.7939 38.1686 57.3633C37.989 56.2543 36.5095 55.6044 35.4781 55.8151ZM37.8049 64.1171C37.4832 64.1637 37.1439 64.3478 36.86 64.5075C36.2722 64.838 32.9851 67.5262 32.7189 68.0053C31.6277 69.9727 33.6572 72.0798 35.6955 71.1482C36.27 70.8843 39.8765 67.9521 40.1471 67.4641C41.0875 65.7696 39.6946 63.8465 37.8049 64.1194V64.1171Z" fill="#5F0C66"/>
<path d="M43.6057 11.3967C42.6342 12.2551 41.0217 11.6096 40.8443 10.3587C40.6314 8.83933 40.6158 2.90837 40.8443 1.41565C41.1326 -0.471882 43.8541 -0.471882 44.1425 1.41565C44.3798 2.96382 44.3532 8.60423 44.158 10.2078C44.1159 10.5561 43.8497 11.1793 43.6035 11.3967H43.6057Z" fill="#5F0C66"/>
<path d="M26.5087 5.00976C27.3893 4.81236 27.8307 5.10735 28.3785 5.72618C29.0173 6.44481 32.5905 12.012 32.9011 12.8238C33.6485 14.7757 31.5592 16.1486 30.1219 14.6071C29.5208 13.9639 25.8167 8.18817 25.5217 7.41852C25.1779 6.52244 25.4507 5.24709 26.5065 5.00754L26.5087 5.00976Z" fill="#5F0C66"/>
<path d="M57.5576 5.00806C59.0769 4.66427 60.0018 6.02169 59.4673 7.41904C59.1812 8.16651 55.4527 13.9777 54.8671 14.6076C53.4276 16.1536 51.3427 14.7717 52.0879 12.8243C52.4384 11.9061 55.7499 6.79356 56.4707 5.91744C56.7591 5.567 57.0851 5.11675 57.5576 5.01028V5.00806Z" fill="#5F0C66"/>
<path d="M77.6334 27.1126C79.0729 28.5876 77.0745 30.9209 75.3755 29.6189C73.6765 28.317 76.032 25.4713 77.6334 27.1126Z" fill="#5F0C66"/>
</svg>
