<svg width="80" height="81" viewBox="0 0 80 81" fill="none" xmlns="http://www.w3.org/2000/svg">
<path d="M39.2098 5.92608L40.6531 5.8728C43.2975 5.90509 49.8438 6.84785 52.1217 8.07958C54.3996 9.31131 54.264 13.0921 51.6261 13.6538C50.0133 13.9977 46.6409 12.5884 44.723 12.293C18.5424 8.26523 0.795363 38.1931 17.3348 58.9775C31.7126 77.045 60.8459 71.5854 67.6732 49.5612C68.737 46.1275 68.5401 43.5898 69.0502 40.2595C69.4716 37.5071 73.8353 36.9517 74.7942 39.9269C75.1623 41.0699 74.9541 43.275 74.8233 44.5342C71.9093 72.5927 38.0571 85.9157 16.8569 67.1396C-7.0974 45.9241 7.72433 6.73324 39.2098 5.92608Z" fill="#5F0C66"/>
<path d="M71.4513 13.9167C74.3011 13.4656 76.0443 16.591 74.3108 18.8449L41.5135 51.5088C40.6153 51.9518 39.6702 51.989 38.7428 51.6284C34.0965 47.5814 29.8557 42.9976 25.5292 38.5852C23.652 35.6861 27.1803 32.475 29.8815 34.6044L40.0692 44.4463L70.1815 14.5246C70.511 14.2255 71.0183 13.9846 71.4513 13.9167Z" fill="#5F0C66"/>
</svg>
