<svg width="85" height="86" viewBox="0 0 85 86" fill="none" xmlns="http://www.w3.org/2000/svg">
<path d="M73.168 57.6345H81.4538C82.7366 57.6345 84.8435 59.9377 84.7864 61.3072C84.2797 67.6619 85.4598 75.069 84.7864 81.3004C84.5878 83.1334 82.9398 84.7768 81.1137 84.9731H58.386C57.0164 85.0302 54.7133 82.9234 54.7133 81.6405V74.5508C50.8808 75.9112 46.8611 76.6964 42.7799 76.7992C40.5338 81.499 35.7426 84.6307 30.5429 84.98C25.7631 85.3018 18.3881 85.3087 13.6129 84.98C7.29699 84.5463 0.0360747 78.5385 0.0360747 71.903V65.8382H8.23742V62.7635C3.40974 60.9283 5.49374 54.2814 10.4584 54.9023C7.82199 47.76 7.58688 40.1567 9.5773 32.8159C6.73548 27.3925 0.611282 21.775 0.058895 15.4979C-0.794794 5.8334 7.76265 -1.76764 17.2559 0.692995C22.4055 2.02831 26.5712 6.71905 27.2057 12.0169C38.0389 6.4885 51.6911 7.4061 61.6341 14.4068L63.9326 11.4189L55.5806 3.02353C55.5464 2.82722 58.1143 0.225063 58.3084 0.136042C58.491 0.0538688 58.6302 0.0401738 58.8151 0.122347L70.6914 4.09863C75.8387 -1.51654 85.0535 3.0806 83.1612 10.6497C82.7686 12.2224 81.8419 13.1605 80.9265 14.4182L84.8868 26.1964C84.969 26.3813 84.9553 26.5205 84.8732 26.7031C84.7864 26.8971 82.182 29.4651 81.9857 29.4308L73.5903 21.0788L70.6024 23.3774C77.6122 33.3295 78.4088 46.7009 73.1635 57.6345H73.168ZM12.4762 3.00983C4.27941 3.84526 0.419549 12.9277 4.34332 19.9261C6.69896 24.1261 10.1594 28.1389 12.6109 32.3343C13.3824 33.3021 14.0306 33.2199 14.8044 32.3343C16.5346 30.353 22.9807 20.6223 23.8709 18.3329C26.9227 10.4899 20.9309 2.14701 12.4762 3.00755V3.00983ZM68.5526 6.20774L60.0089 3.4732L65.7336 9.27783L68.5526 6.20774ZM75.5168 4.37254C74.8138 4.47298 74.0651 4.83134 73.5036 5.26275C71.9514 6.45426 69.1735 9.4513 67.7811 10.9875C64.8 14.279 61.682 18.8076 59.808 22.8341C59.4291 23.649 58.2422 25.6257 59.331 26.1119C59.9107 26.3722 62.4056 25.087 63.0881 24.7469C66.9343 22.8273 71.0133 19.9489 74.1929 17.0569C75.5761 15.7992 78.9384 12.6994 79.9039 11.3207C82.1637 8.08402 79.3903 3.82016 75.5168 4.37254ZM33.5262 24.8291H51.2962C50.9789 23.8545 50.6411 21.4235 50.1116 20.6748C49.9381 20.4306 48.7534 19.9969 48.3905 19.8713C48.3973 19.2368 49.2853 19.1341 49.2191 18.4675C49.1346 17.6161 47.1282 14.4022 46.5073 13.6421C41.2277 7.19154 36.9501 14.9021 35.1058 19.6613C34.4553 21.3368 33.9531 23.0852 33.524 24.8291H33.5262ZM23.1039 24.8291H30.5361C31.0291 24.0005 31.1387 22.9026 31.4308 21.9645C32.5402 18.3968 33.9599 14.8998 36.2585 11.9279C36.3841 11.5262 32.0357 12.9277 31.7298 13.0373C30.2439 13.5691 28.831 14.2699 27.4203 14.9638C27.1099 18.7917 25.2952 21.8115 23.1039 24.8291ZM60.1824 16.7967C56.8429 14.2813 52.6909 12.5739 48.564 11.8457C49.6162 13.2792 50.6594 14.7789 51.3008 16.4566L53.0561 15.1281L60.1846 16.799L60.1824 16.7967ZM81.5383 25.0003L78.7215 16.4589L75.7337 19.2779L81.5383 25.0026V25.0003ZM53.8071 18.1936C53.6884 18.221 52.8096 18.9081 53.1793 19.1021L57.393 21.2203C57.7149 21.2203 58.4316 19.7914 58.4499 19.5883C58.4727 19.3418 58.3677 19.3167 58.1782 19.2276C57.8564 19.077 54.0239 18.1411 53.8071 18.1936ZM53.5195 22.4392L54.1928 24.7561H56.0919L56.343 23.7974L53.5195 22.4415V22.4392ZM73.8505 41.2318C73.4237 35.4021 71.7574 29.5244 68.2148 24.8291L69.8834 32.0695L65.3912 36.6164L61.2141 28.6593C60.0888 29.0542 59.0525 29.0405 57.9796 28.4835C57.5756 28.2735 57.0598 27.6687 56.8178 27.5956C56.2449 27.4244 55.341 27.6436 54.7178 27.5614C55.6035 32.0581 55.9641 36.6461 56.0851 41.2295H73.8551L73.8505 41.2318ZM65.4232 26.5593C65.22 26.5776 63.7911 27.2943 63.7911 27.6162L66.076 32.001L66.8338 31.0766C66.8452 30.8574 65.9117 27.1049 65.7838 26.8309C65.6948 26.6415 65.6697 26.5365 65.4232 26.5593ZM30.1092 27.5637H21.3098C18.678 30.3918 16.8793 37.7189 11.8279 35.2537L10.972 41.2341H28.7419C28.8469 36.6484 29.2099 32.0604 30.1092 27.5659V27.5637ZM31.4765 41.2318H53.346C53.2205 36.6826 52.8301 32.1403 51.9878 27.6709L32.8506 27.5705C32.0243 32.0741 31.5838 36.6438 31.4765 41.2318ZM28.7442 43.9664H10.9742C11.1751 47.7577 12.127 51.3414 13.3664 54.9023H29.5979L28.7442 43.9664ZM53.346 43.9664H31.4765C31.5883 47.5888 31.8805 51.1976 32.3598 54.7881C33.5354 55.5916 34.8616 56.0709 35.2633 57.6071L51.9719 57.6254C52.8119 53.1241 53.2456 48.5521 53.346 43.9641V43.9664ZM73.8505 43.9664H56.0805C55.9755 48.5521 55.6126 53.1401 54.7133 57.6345H70.0911C72.2413 53.3341 73.5698 48.7963 73.8505 43.9664ZM9.21665 57.671C7.7421 58.1641 7.95666 60.239 9.51795 60.3713H31.5655C33.2957 60.2001 33.2934 57.8011 31.5655 57.6299L9.21665 57.671ZM51.2962 60.3691H35.2359C35.0601 61.257 34.3548 62.0468 33.5514 62.4462L33.5217 62.6631L37.8837 71.305H43.7774V73.6971C45.891 72.7795 47.3861 70.5038 48.4202 68.5156C49.7235 66.0071 50.6228 63.1082 51.2962 60.3713V60.3691ZM54.8845 60.3691L54.1129 60.5357C52.9968 65.094 51.3533 69.5542 48.564 73.3524C48.8561 73.5761 54.3937 71.8733 54.6334 71.4784L54.8845 60.3691ZM62.9146 60.3691H58.386C57.9956 60.3691 57.2835 61.3483 57.4387 61.8139C57.8724 67.9267 56.8886 74.7722 57.4387 80.796C57.498 81.4579 57.6327 81.887 58.2924 82.1632H81.205C81.8647 81.887 81.9971 81.4579 82.0587 80.796C82.6134 74.722 81.625 67.8126 82.0541 61.6473C82.1546 61.2273 81.4355 60.3691 81.1114 60.3691H76.5828V65.8359H62.9146V60.3691ZM73.8505 60.3691H65.6491V63.1036H73.8505V60.3691ZM34.7223 71.305L30.5361 63.1036H10.972V65.8382L13.2819 66.0071L16.0142 71.305H34.7223ZM40.8739 74.0372H14.3046L11.3988 68.5704H2.77061V71.7318C2.77061 76.6827 8.71221 82.1587 13.6221 82.2363C19.0957 81.9578 24.9437 82.6175 30.3717 82.2454C35.1126 81.9213 39.6573 78.6983 40.8716 74.0372H40.8739Z" fill="#5F0C66"/>
<path d="M73.8505 76.772H71.116V79.5065H73.8505V76.772Z" fill="#5F0C66"/>
<path d="M79.3197 76.772H76.5852V79.5065H79.3197V76.772Z" fill="#5F0C66"/>
<path d="M43.7795 35.7649H41.0449V38.4994H43.7795V35.7649Z" fill="#5F0C66"/>
<path d="M49.2465 35.7649H46.512V38.4994H49.2465V35.7649Z" fill="#5F0C66"/>
<path d="M38.3129 35.7649H35.5784V38.4994H38.3129V35.7649Z" fill="#5F0C66"/>
<path d="M38.3129 46.7007H35.5784V49.4352H38.3129V46.7007Z" fill="#5F0C66"/>
<path d="M43.7795 46.7007H41.0449V49.4352H43.7795V46.7007Z" fill="#5F0C66"/>
<path d="M49.2465 46.7007H46.512V49.4352H49.2465V46.7007Z" fill="#5F0C66"/>
<path d="M12.6452 5.742C22.6544 4.53679 25.5578 19.0153 16.0189 21.7612C4.64929 25.0322 1.30072 7.10927 12.6452 5.742ZM12.9853 8.47654C6.20601 9.27544 6.97068 19.805 14.1312 19.3599C21.2917 18.9148 20.5384 7.58633 12.9853 8.47654Z" fill="#5F0C66"/>
<path d="M75.496 7.58625C75.7905 7.53375 77.1076 9.09505 77.4249 9.39179L75.6421 11.3297L73.6814 9.36896L75.496 7.58625Z" fill="#5F0C66"/>
<path d="M71.7141 11.3345L73.6749 13.2952L71.8602 15.0779C71.5657 15.1304 70.2487 13.5691 69.9314 13.2724L71.7141 11.3345Z" fill="#5F0C66"/>
<path d="M67.8086 15.2742L69.7374 17.0797L67.9547 18.8556L66.156 17.0569L67.8086 15.2742Z" fill="#5F0C66"/>
<path d="M19.1757 65.8357H16.4412V68.5702H19.1757V65.8357Z" fill="#5F0C66"/>
<path d="M24.6425 65.8357H21.908V68.5702H24.6425V65.8357Z" fill="#5F0C66"/>
<path d="M30.1115 65.8357H27.377V68.5702H30.1115V65.8357Z" fill="#5F0C66"/>
</svg>
