<svg width="85" height="86" viewBox="0 0 85 86" fill="none" xmlns="http://www.w3.org/2000/svg">
<path d="M38.6611 85.7192C36.7883 85.1712 35.6412 84.1305 34.7425 82.422C31.9246 83.3694 29.2974 82.3843 27.9506 79.7527C24.2029 81.9472 19.6964 78.5767 20.5551 74.4252C16.7475 74.5827 14.2624 71.0969 15.5426 67.5001C15.7512 66.9121 17.0426 64.8729 17.0271 64.5712C16.4213 63.4373 16.5367 61.8087 16.084 60.7081C15.5715 59.4656 12.1722 58.7 10.9917 57.9745C10.2018 58.6801 9.30761 59.3147 8.18264 59.308C7.2374 59.3014 2.69759 57.2156 1.73904 56.6187C-0.45321 55.2541 -0.251292 53.5256 0.598536 51.3911C3.05039 45.2226 6.49852 38.0024 9.45406 32.0115C10.5014 29.888 11.3113 28.2571 14.1248 28.7874C14.8681 28.9272 19.1905 30.9819 19.9138 31.4678C21.771 32.7148 21.771 34.6785 20.8901 36.5513C22.6763 36.9839 24.7931 38.6703 26.5283 38.9698C29.3374 39.4558 32.8543 37.7472 35.8941 37.7783C38.1352 37.8005 39.8903 38.5017 41.8917 39.3781C45.1047 37.4188 48.4152 36.9085 52.0786 37.8338C54.1089 38.3486 57.3151 40.1813 59.1812 40.2102C61.0473 40.239 63.1863 38.1955 64.9015 37.7073C64.2313 36.2029 64.6041 34.2192 66.0109 33.2585C66.7298 32.7681 71.1587 30.9908 72.0351 30.8111C73.7903 30.4516 75.3457 31.1062 76.1112 32.7348L85 55.3207V56.8162C84.5629 57.8214 84.2545 58.5625 83.2604 59.146C82.4106 59.6431 78.4565 61.2185 77.5335 61.3915C75.876 61.7 74.5491 61.234 73.6261 59.8294L68.2142 62.2169C68.0123 62.3945 68.2697 62.8693 68.2298 63.1999C67.9746 65.3322 66.7498 67.2871 64.5775 67.7841C65.6403 71.8003 62.7136 75.2905 58.591 74.5849C58.8217 77.5959 55.9328 80.2808 52.9439 79.7349C52.9573 84.936 47.5299 86.7488 43.7223 83.5625C42.9967 84.723 41.7386 85.291 40.485 85.7148H38.6589L38.6611 85.7192ZM12.8689 31.4368L2.61993 53.4302C2.58443 53.6299 2.60883 53.8141 2.69981 53.996C3.00601 54.6151 7.24628 56.0574 8.05617 56.6232L8.83943 56.3103L18.8177 34.4123C18.8599 33.9707 18.496 33.74 18.1809 33.5314C17.6728 33.1963 14.3045 31.6298 13.752 31.4834C13.4502 31.4035 13.1773 31.3414 12.8667 31.4346L12.8689 31.4368ZM72.6697 33.4338C72.1328 33.5114 68.2697 35.0424 67.7749 35.3597C67.3555 35.6304 67.1714 35.7214 67.229 36.2917L75.8338 58.2651C76.0468 58.7777 76.3974 58.8798 76.93 58.8088C77.3249 58.7555 81.29 57.1934 81.7183 56.9427C82.0578 56.7452 82.3773 56.5256 82.3418 56.0907L73.7392 33.9485C73.5018 33.4116 73.2222 33.3539 72.6697 33.4338ZM55.2116 72.9896C53.9602 71.8912 46.6623 68.6495 46.223 67.6132C45.6572 66.2819 46.8199 65.401 48.109 65.8892C51.4151 67.1473 55.0985 70.2604 58.4445 71.6671C61.6086 72.9962 63.386 69.4682 61.1094 67.6754C58.4645 65.5919 54.1776 64.1673 51.3663 62.1371C50.0306 61.0054 51.1799 59.2326 52.7775 59.8938C55.4402 60.9921 58.4689 63.2998 61.1382 64.6555C62.2521 65.2213 63.0465 65.7938 64.3001 65.1037C65.7668 64.2938 65.9022 62.3767 64.7439 61.2162C60.4681 58.9197 56.2146 55.9531 51.8944 53.803C47.6564 51.6929 43.8421 54.8015 39.7439 55.993C35.3461 57.2711 31.5718 56.9138 28.4454 53.3348C27.7309 52.5183 26.5261 51.2291 27.7109 50.2705C32.0333 47.8609 35.7943 44.7256 39.3245 41.2908C35.2729 38.9565 30.7486 42.1916 26.4728 41.688C24.2961 41.4306 21.8309 39.5822 19.7319 38.8811L12.2676 55.6424C15.0944 56.9782 18.7045 57.4575 18.8998 61.3028C18.9863 61.396 20.26 60.464 20.5218 60.3531C23.7769 58.9574 27.1074 60.9988 27.6954 64.3914C30.3026 63.921 32.9808 65.4632 33.5177 68.1125C36.42 67.1539 39.289 68.7005 40.1743 71.5917C42.107 71.1923 43.4206 71.3654 45.0315 72.4615C45.4309 72.7344 45.6882 73.1493 46.0832 73.4023C47.0883 74.0413 52.387 77.0013 53.1969 77.0834C55.7775 77.3452 56.7959 74.849 55.2161 72.9896H55.2116ZM72.5299 57.4663L65.8067 40.2146C65.5405 40.1569 62.0413 42.2427 61.2958 42.4978C57.2219 43.8935 53.7228 40.4543 49.8531 40.0637C43.8732 39.4602 41.0375 43.6494 37.079 47.0155C35.082 48.7129 32.8898 50.1751 30.6887 51.5908C34.9223 57.0337 41.5611 51.8238 46.5625 50.6855C49.1097 50.1064 50.5409 50.1663 52.8907 51.309C56.6717 53.1506 61.3024 55.9708 64.9547 58.1808C65.7335 58.6512 66.4835 59.1349 67.1447 59.7651L72.5322 57.4663H72.5299ZM22.0084 62.6718C21.4138 62.7828 20.8324 63.3219 20.4863 63.8057C20.0913 64.3537 18.05 68.2057 17.939 68.7316C17.4242 71.2123 20.2577 72.8298 21.953 71.0858C22.4522 70.5732 24.8841 65.9735 24.9751 65.2923C25.2147 63.5061 23.6992 62.359 22.0084 62.6718ZM28.4942 66.9853C27.7331 67.0452 27.0652 67.5223 26.6303 68.1236C26.0756 68.8891 23.3619 73.9903 23.1622 74.7869C22.572 77.1322 25.4566 78.8829 27.2871 76.917C28.6872 75.4148 29.6769 72.0288 30.9438 70.2759C31.4342 68.6029 30.3181 66.8433 28.4964 66.9831L28.4942 66.9853ZM35.2839 70.5C34.3853 70.5067 33.8017 70.9371 33.2736 71.6139C32.8343 72.1752 30.591 76.309 30.4335 76.9125C29.719 79.6617 32.7811 81.1617 34.4341 79.4176C34.8335 78.9961 37.434 74.1744 37.5849 73.602C37.9865 72.0732 36.9082 70.4889 35.2839 70.5022V70.5ZM41.104 74.1278C40.718 74.2144 40.201 74.6493 39.948 74.9644C39.5397 75.4703 37.2898 79.6728 37.2055 80.1965C36.8061 82.686 39.9236 84.115 41.4857 82.1491C42.0382 81.4546 43.5914 78.5257 43.9597 77.647C44.8273 75.5723 43.3629 73.6175 41.1063 74.1301L41.104 74.1278ZM46.7999 76.917C47.1571 77.8999 44.9804 80.7068 45.1513 81.2926C46.5847 82.6993 49.6445 83.2075 50.2147 80.749C50.7473 78.4547 48.4729 77.6736 46.7999 76.917Z" fill="#5F0C66"/>
<path d="M56.4322 15.6272V15.3853C53.8605 12.6672 54.4951 8.26717 57.7125 6.36337C62.5563 3.49659 68.0591 8.17176 66.2796 13.4349C65.9955 14.2781 65.372 14.8972 65.0703 15.6272C68.8091 16.9585 73.9436 24.192 68.1279 26.2445L55.9241 26.331C55.6445 27.6934 55.9263 28.6897 55.0765 29.9677C54.0824 31.4588 52.5913 31.9647 50.8762 32.0801C44.9784 32.4773 38.395 31.9359 32.4773 31.8604C31.0461 31.481 29.4796 29.9411 29.2333 28.4611C29.149 27.9574 29.3287 26.5329 29.038 26.331L16.8342 26.2445C11.0186 24.192 16.153 16.9585 19.8918 15.6272V15.3831C17.6197 12.9712 17.9037 8.92395 20.4776 6.83156C25.2526 2.94853 32.0291 8.03197 29.606 13.801C29.3065 14.5177 28.7629 14.9926 28.5299 15.6272C29.9233 15.9866 30.8065 17.1493 31.9115 17.9437C33.5956 16.1397 35.3618 14.6864 37.6606 13.7212C33.8441 10.6458 34.2967 4.48621 38.4416 1.8746C45.0405 -2.28357 52.6357 4.98102 48.9901 11.7575L47.3792 13.8033C49.678 14.6597 51.3865 16.2041 53.0529 17.9414C54.1579 17.1471 55.041 15.9844 56.4344 15.6249L56.4322 15.6272ZM41.7766 3.38121C36.0807 4.12453 36.5245 12.9778 42.5376 12.9068C49.1942 12.8292 48.4909 2.50476 41.7766 3.38121ZM23.6706 8.19394C19.5967 8.84629 20.4843 15.3476 24.9198 14.5909C28.7629 13.9364 28.024 7.49722 23.6706 8.19394ZM60.2132 8.19838C56.2037 8.73535 56.8693 15.1612 61.1518 14.6176C65.2789 14.0917 64.6198 7.60816 60.2132 8.19838ZM40.7803 15.6715C35.0667 16.3905 31.0017 22.1972 31.8626 27.8265C32.0557 29.0846 33.1629 29.342 34.2524 29.4219C39.622 29.8124 45.4555 29.1112 50.8739 29.4219C51.8968 29.3753 52.9286 28.9493 53.0995 27.8265C54.2222 20.4843 47.9184 14.7751 40.7781 15.6715H40.7803ZM29.3376 23.5796C29.3464 22.7031 30.2406 21.3385 30.3272 20.6529C30.4315 19.8186 28.5543 18.5649 27.8687 18.1988C24.4605 16.3905 20.1004 17.349 17.9303 20.5575C17.542 21.1344 16.5325 22.8119 16.9762 23.4442L29.3376 23.5774V23.5796ZM55.6245 23.5796L67.9859 23.4465C68.4296 22.8141 67.4201 21.1344 67.0318 20.5597C64.8639 17.3512 60.5016 16.3927 57.0934 18.2011C56.4078 18.5649 54.5284 19.8186 54.6349 20.6551C54.7215 21.3385 55.6157 22.7031 55.6245 23.5818V23.5796Z" fill="#5F0C66"/>
<path d="M71.3386 35.5946C74.2763 35.3195 73.5153 40.6048 70.5997 39.0805C68.8268 38.153 69.5546 35.7611 71.3386 35.5946Z" fill="#5F0C66"/>
<path d="M14.0362 33.7709C17.0893 33.1518 17.1071 37.6362 14.3512 37.3766C12.3298 37.1857 12.1812 34.1459 14.0362 33.7709Z" fill="#5F0C66"/>
</svg>
