<svg width="85" height="84" viewBox="0 0 85 84" fill="none" xmlns="http://www.w3.org/2000/svg">
<path d="M61.2545 79.5207C60.5942 81.2853 59.055 82.8268 57.2137 83.3249C55.7015 83.735 49.8691 83.726 48.1969 83.4984C42.4862 82.7254 41.2106 74.4388 46.4864 71.9237C48.6161 70.9096 56.2807 70.8848 58.3676 71.9778C59.7739 72.7125 60.6934 74.0489 61.3402 75.4529C65.6919 75.329 70.3209 76.3048 73.5369 72.6584C76.0474 69.8098 75.5584 66.7809 75.5764 63.2359C73.1244 62.7446 71.0669 61.1581 70.5485 58.6182C70.8888 52.9278 69.9423 46.3742 70.5057 40.7829C70.7671 38.1867 73.1267 36.3117 75.5719 35.8767C75.0445 29.2555 72.7413 23.0332 68.7163 17.771C63.9882 11.5915 56.6053 6.96251 48.9181 5.51793C29.1041 1.79266 10.8271 15.9771 9.44106 35.9691C11.8795 36.2148 13.9686 38.0785 14.4532 40.4877C14.1647 46.1849 14.9895 52.5401 14.5027 58.163C14.3044 60.4617 12.3054 62.7536 9.98193 63.0894C4.96307 63.8174 0.539174 59.9028 0.151548 54.9583C-0.082831 51.9587 -0.172976 43.8839 0.856938 41.3125C1.73135 39.131 3.42609 37.7337 5.36196 36.5393C6.36483 14.4626 25.9693 -1.85373 47.9558 1.25179C65.4598 3.72403 79.0132 18.8753 79.6397 36.5393C82.6371 38.2588 84.5887 40.7761 84.8501 44.3189C85.053 47.0818 85.1611 54.636 84.4219 57.0632C83.6467 59.6076 81.8393 61.2369 79.6397 62.5711C79.7862 67.759 79.8516 72.3474 75.8221 76.129C71.5852 80.1044 66.661 79.5117 61.2523 79.5252L61.2545 79.5207ZM10.054 58.6858C10.2073 58.5326 10.3132 58.3117 10.4056 58.1134L10.4462 41.121C9.86248 39.753 8.48551 39.8589 7.25052 40.2781C5.5062 40.8685 4.35685 42.6872 4.2036 44.4834C3.98275 47.057 3.9602 52.2291 4.21036 54.778C4.46051 57.3269 6.77951 59.5061 9.34416 59.0712C9.56952 59.0329 9.89178 58.8458 10.0518 58.6858H10.054ZM74.9521 58.6858C75.1144 58.8481 75.4344 59.0329 75.6598 59.0712C78.2267 59.5061 80.5502 57.2503 80.7936 54.778C81.037 52.3058 81.0212 47.057 80.8003 44.4834C80.6471 42.6872 79.4977 40.8685 77.7534 40.2781C76.6289 39.8972 74.7381 39.7124 74.5465 41.2787C74.9386 46.5364 74.0529 52.4861 74.542 57.6604C74.5803 58.0706 74.6479 58.3838 74.9499 58.6858H74.9521ZM48.5259 75.4822C46.6577 76.0997 46.7681 79.0655 48.6972 79.4576C49.6821 79.656 54.8542 79.6469 55.9021 79.4847C57.9079 79.1759 58.1558 76.1425 56.2154 75.4822H48.5259Z" fill="#5F0C66"/>
<path d="M29.5119 55.2041C27.0149 55.1275 24.5832 54.1359 22.9403 52.2451C21.4055 50.4782 20.8759 48.4905 20.7362 46.185C20.4387 41.3082 20.4229 34.1776 20.7452 29.3098C21.0359 24.9084 23.3775 21.6384 27.7878 20.6626C36.7145 20.6964 46.3579 19.9008 55.2485 20.444C60.6369 20.773 63.9047 23.8808 64.2653 29.3098C64.5876 34.1776 64.5718 41.3059 64.2743 46.185C63.9768 51.0709 61.1395 54.7556 56.0643 55.1816C52.2646 55.5016 48.145 54.9607 44.3115 55.2379L36.1782 63.1302C34.5465 64.2322 32.5385 64.1511 31.0331 62.88C28.784 60.9802 29.7034 57.7958 29.5141 55.2041H29.5119ZM33.5617 59.7565C33.8569 59.8308 33.8997 59.6348 34.0687 59.5041C34.6254 59.0781 35.5336 58.1744 36.0948 57.6493C38.2966 55.585 40.2798 53.2818 42.547 51.2805C46.7748 50.7937 51.3677 51.4924 55.5843 51.1588C58.6537 50.9177 60.0352 48.948 60.2245 46.016C60.5761 40.587 59.9473 34.7794 60.2132 29.3098C59.9586 26.2516 58.2571 24.7191 55.2462 24.4938C47.0294 23.8785 38.0577 24.9738 29.7598 24.4938C26.8368 24.7124 25.0925 26.1772 24.8108 29.161C24.2654 34.9552 25.0001 41.7995 25.0046 47.6499C25.4801 49.5948 27.1658 50.9222 29.113 51.134C30.3254 51.2648 32.1689 50.7915 33.0614 51.7403C33.147 51.8304 33.5639 52.5381 33.5639 52.5876V59.7565H33.5617Z" fill="#5F0C66"/>
<path d="M44.6341 36.0322C47.4218 38.82 43.1557 43.0839 40.3702 40.2961C37.5847 37.5084 41.8463 33.2445 44.6341 36.0322Z" fill="#5F0C66"/>
<path d="M32.3474 35.1645C35.5723 34.8445 36.9493 39.3135 34.0804 40.7896C29.7264 43.0275 27.786 35.6175 32.3474 35.1645Z" fill="#5F0C66"/>
<path d="M52.0821 35.1645C55.3702 34.8355 56.612 39.5726 53.5831 40.8955C49.3147 42.7593 47.514 35.622 52.0821 35.1645Z" fill="#5F0C66"/>
</svg>
