<svg width="85" height="91" viewBox="0 0 85 91" fill="none" xmlns="http://www.w3.org/2000/svg">
<path d="M43.5275 0.263916C49.3668 1.76358 49.4347 9.54309 43.6915 11.2466L43.8672 23.8672C47.9749 24.1297 51.4288 25.7348 54.6602 28.1577C55.007 28.4178 55.5927 29.266 56.0426 29.177L60.1855 24.9029L60.1667 17.0367C59.6934 16.6454 59.1474 16.5165 58.6272 16.1205C55.3069 13.5875 56.9378 8.08326 61.1462 7.79739C66.7653 7.41779 68.0822 15.1926 62.8193 17.0133V24.2914H68.6961C71.0065 17.7538 80.3325 19.3003 79.6671 26.4917C79.2148 31.3585 72.4874 32.8957 69.6919 28.9099C69.2092 28.2209 69.1366 27.5789 68.6726 26.9462L62.0226 27.0892L57.7673 31.3937C60.0894 34.3789 61.5071 38.0391 61.7718 41.8304H75.5406C75.9999 41.7461 76.5014 40.3964 76.963 39.9207C78.9477 37.8797 82.3173 38.093 84.0161 40.3706C86.8397 44.1525 83.135 49.0944 78.6126 47.5291C77.1129 47.0089 76.4053 45.8045 75.6906 44.4876L61.7718 44.4665C61.5445 47.4096 60.715 50.334 59.2294 52.8881C58.6179 53.9426 57.9969 55.3485 56.5488 54.683C54.9695 53.9566 56.8698 51.8219 57.301 50.9573C63.7683 38.0133 52.2701 23.4947 38.2294 26.9744C27.9661 29.5191 22.5204 41.9499 27.7107 51.2455C29.0651 53.6684 31.0381 55.4563 33.0884 57.2699C33.4328 58.158 32.6877 59.25 31.6989 59.1961C30.1805 59.1117 26.3915 54.2026 25.6041 52.8248C24.1349 50.2496 23.4038 47.4752 23.0149 44.5392L9.41009 44.4619C8.85943 44.565 8.68603 45.5561 8.34626 46.0295C6.08739 49.1858 0.526917 47.9908 0.0465559 44.0049C-0.672815 38.0438 7.15356 36.4293 9.07969 41.8421L23.1812 41.8328C23.2094 37.9243 24.9761 34.4469 27.0124 31.2461L22.9258 27.0892L16.2804 26.9509C15.9219 27.0728 15.6899 28.1319 15.4322 28.5584C13.096 32.4317 7.02937 31.9818 5.50393 27.6726C2.8842 20.2727 13.9653 16.8961 15.9899 24.2914H21.9534V17.0133C19.4555 15.8347 18.0519 13.6437 18.9611 10.8647C20.7677 5.34871 29.6931 7.89815 27.7927 13.9085C27.2819 15.5277 26.1314 16.1885 24.7863 17.0414L24.7629 25.0787L28.88 29.3762C32.0832 26.2269 36.5353 24.0828 41.0718 23.9422L41.0788 11.2536C35.3637 9.43999 35.5558 1.68391 41.4209 0.263916H43.5251H43.5275ZM41.7232 2.93519C38.3302 3.63582 39.0004 9.32752 43.0471 8.64095C46.6018 8.03874 45.777 2.09866 41.7232 2.93519ZM22.7805 10.4734C20.5662 10.9678 21.0395 15.0684 23.8936 14.3983C26.2462 13.8453 25.5549 9.85474 22.7805 10.4734ZM61.0197 10.478C58.5827 10.9771 59.1966 15.0052 61.9898 14.4334C64.4267 13.9343 63.8128 9.90629 61.0197 10.478ZM12.7703 27.7406C15.4908 24.8725 11.1277 20.9007 8.55247 23.6095C5.7898 26.5151 10.2677 30.3791 12.7703 27.7406ZM73.8277 22.7542C70.5566 23.2346 70.5894 28.0452 73.4435 28.4928C78.5681 29.2965 77.919 22.152 73.8277 22.7542ZM4.37215 41.1649C1.75711 41.4602 2.16014 45.5772 5.01419 45.1554C7.58706 44.7758 6.86535 40.8837 4.37215 41.1649ZM79.9693 41.1673C77.4621 41.5305 77.7667 45.8608 80.9394 45.1297C83.0811 44.6376 82.6336 40.783 79.9693 41.1673Z" fill="#5F0C66"/>
<path d="M46.6836 57.7949H57.9967C61.0007 57.7949 63.5548 60.8599 63.8501 63.6928C63.9602 64.7403 64.1781 67.9809 63.2127 68.4496C60.5625 69.736 61.3662 65.2792 61.2397 64.0232C61.064 62.2611 59.7846 60.5646 57.91 60.5998V63.4937C57.91 64.4591 56.2463 65.0871 55.548 64.2763C54.838 63.4538 55.7214 61.2934 55.0161 60.424H52.298V63.6694C52.298 64.3653 51.0818 64.848 50.3718 64.5411C50.2875 64.5036 49.6665 63.8944 49.6665 63.8428V60.4217H46.6836V63.8428C46.6836 64.7262 44.42 65.1105 44.0896 63.6296L44.0428 44.7338C43.3773 42.564 40.6334 42.7491 40.3686 45.0759L40.2772 72.1706C39.8039 72.8549 39.1103 73.1501 38.3417 72.7096L31.7221 64.9488C29.8967 63.8826 28.2049 65.8017 29.2406 67.606L40.5888 81.1639L40.7154 89.0958C40.3873 90.101 39.0165 90.4548 38.3558 89.5339C37.5919 88.4678 38.4518 83.711 37.9925 82.1786L26.6841 68.4051C25.1634 64.588 28.4228 60.9208 32.3946 62.3431C34.5972 63.1328 35.9352 66.3407 37.7371 67.7864V54.7183C32.4157 52.3891 29.1375 46.5451 30.2716 40.7644C30.5223 39.4873 31.6518 35.5319 33.449 37.6057C34.2317 38.5078 33.1327 40.1504 32.9031 41.2916C32.09 45.3571 33.9997 49.767 37.7348 51.6486V44.3706C37.7348 44.1269 38.2878 42.9201 38.4659 42.646C40.2678 39.8786 44.5161 39.8528 46.1259 42.8194C46.2173 42.9881 46.6789 44.1199 46.6789 44.1948V51.8244C51.5997 49.6054 53.5281 43.5833 51.0654 38.7562C48.8417 34.3978 44.0545 32.5724 39.4102 33.9432C38.4026 34.2408 37.1677 35.3234 36.3265 34.3744C34.5949 32.4225 38.7119 31.2884 40.0054 31.0283C44.6309 30.098 49.7181 32.1624 52.4362 35.9818C57.3218 42.8498 54.2405 51.801 46.6812 54.8917V57.7856L46.6836 57.7949Z" fill="#5F0C66"/>
<path d="M57.4301 89.6744C56.9052 89.1167 57.341 83.7671 57.2449 82.6517C59.2273 80.742 60.7153 78.8862 61.198 76.0813C61.3807 75.0269 60.8957 73.328 62.4282 73.089C64.7386 72.7282 63.7427 76.8804 63.3936 78.1012C62.7515 80.3413 61.5143 82.0894 59.8764 83.7039C59.5811 85.0161 60.331 88.9011 59.4054 89.7236C58.8852 90.1852 57.8847 90.1594 57.4301 89.6744Z" fill="#5F0C66"/>
</svg>
