<svg width="156" height="76" viewBox="0 0 156 76" fill="none" xmlns="http://www.w3.org/2000/svg">
<g clip-path="url(#clip0_112_158)">
<path d="M65.6114 28.5364H65.5802C65.5802 28.5364 65.5698 28.533 65.5698 28.526C65.5698 28.5191 65.5768 28.5156 65.5802 28.5156C65.5837 28.5156 65.5871 28.5156 65.5906 28.5191C65.5941 28.5191 65.5941 28.5226 65.5941 28.526L65.6079 28.5364H65.6114Z" fill="#E39B4D"/>
<path d="M65.5941 28.5221C65.5941 28.5221 65.5871 28.5325 65.5802 28.5325C65.5768 28.5325 65.5698 28.529 65.5698 28.5221C65.5698 28.5152 65.5768 28.5117 65.5802 28.5117C65.5837 28.5117 65.5871 28.5117 65.5906 28.5152C65.5941 28.5152 65.5941 28.5187 65.5941 28.5221Z" fill="#E39B4D"/>
<path d="M65.6114 28.5364H65.5802C65.5802 28.5364 65.5698 28.533 65.5698 28.526C65.5698 28.5191 65.5768 28.5156 65.5802 28.5156C65.5837 28.5156 65.5871 28.5156 65.5906 28.5191C65.5941 28.5191 65.5941 28.5226 65.5941 28.526L65.6079 28.5364H65.6114Z" fill="#E39B4D"/>
<path d="M11.2531 30.5326H0V24.332H29.2941V30.5326H17.9856V62.0764H11.2531V30.5326Z" fill="white"/>
<path d="M32.1499 35.1147H38.6124V62.0765H32.1499V35.1147Z" fill="white"/>
<path d="M45.8258 35.1147H52.2883V64.7175C52.2883 66.1906 52.136 67.577 51.8314 68.8698C51.5268 70.1626 50.9971 71.3029 50.2426 72.2941C49.488 73.2819 48.4841 74.0653 47.2276 74.6406C45.9711 75.216 44.3927 75.5036 42.4889 75.5036H41.9766C41.814 75.5036 41.6444 75.4863 41.4644 75.4482V69.5179C42.8282 69.5179 43.8977 69.1228 44.6696 68.3326C45.4415 67.5423 45.8258 66.2287 45.8258 64.3952V35.1182V35.1147Z" fill="white"/>
<path d="M69.0348 34.7369C71.1152 34.7369 73.0189 35.0696 74.7427 35.7351C76.4665 36.4005 77.9376 37.3433 79.1595 38.5668C80.378 39.7902 81.3229 41.2633 81.9875 42.9893C82.6521 44.7154 82.9844 46.6217 82.9844 48.7047V62.0764H76.5219V59.4873C75.8746 60.3157 74.8777 61.0331 73.5312 61.6431C72.1847 62.2532 70.5232 62.5582 68.5502 62.5582C66.5772 62.5582 64.8153 62.2254 63.1642 61.56C61.5131 60.8945 60.0939 59.9518 58.9101 58.7283C57.7263 57.5083 56.7986 56.0318 56.1375 54.3057C55.4729 52.5797 55.1406 50.6768 55.1406 48.5903C55.1406 46.5038 55.4729 44.6079 56.1375 42.9027C56.7986 41.1974 57.7436 39.7383 58.962 38.5356C60.1839 37.3294 61.6447 36.3971 63.3512 35.7316C65.0576 35.0661 66.951 34.7334 69.0348 34.7334V34.7369ZM76.5185 48.6492C76.5185 46.133 75.8469 44.1747 74.5004 42.771C73.1539 41.3707 71.3505 40.6671 69.0867 40.6671C66.823 40.6671 65.0126 41.3673 63.6488 42.771C62.285 44.1747 61.6031 46.133 61.6031 48.6492C61.6031 51.1655 62.285 53.1238 63.6488 54.5275C65.0126 55.9278 66.8264 56.6314 69.0867 56.6314C71.3471 56.6314 73.1539 55.9312 74.5004 54.5275C75.8469 53.1238 76.5185 51.1655 76.5185 48.6492Z" fill="white"/>
<path d="M85.833 46.9786C85.833 42.8818 87.0376 39.8006 89.4399 37.7314C91.8456 35.6657 95.0958 34.6328 99.1873 34.6328V40.5631C97.0343 40.5631 95.3451 41.0934 94.1232 42.154C92.9048 43.2145 92.2921 44.8227 92.2921 46.9786V62.0763H85.8296V46.9786H85.833Z" fill="white"/>
<path d="M114.428 62.5617C112.202 62.5617 110.309 62.1943 108.748 61.4561C107.187 60.7178 105.902 59.7855 104.899 58.6521C103.891 57.5187 103.164 56.2883 102.718 54.9574C102.268 53.6265 102.046 52.3683 102.046 51.183V35.1147H108.509V51.0201C108.509 51.9905 108.672 52.8189 108.993 53.5017C109.315 54.1845 109.748 54.7598 110.288 55.2277C110.828 55.6956 111.455 56.0353 112.175 56.2502C112.891 56.4651 113.646 56.5725 114.435 56.5725C115.224 56.5725 115.979 56.4651 116.695 56.2502C117.415 56.0353 118.042 55.6922 118.582 55.2277C119.122 54.7598 119.551 54.1845 119.876 53.5017C120.198 52.8189 120.361 51.9905 120.361 51.0201V35.1147H126.823V51.183C126.823 52.3683 126.598 53.6265 126.152 54.9574C125.702 56.2883 124.975 57.5187 123.971 58.6521C122.967 59.7855 121.683 60.7178 120.122 61.4561C118.561 62.1909 116.667 62.5617 114.442 62.5617H114.428Z" fill="white"/>
<path d="M129.666 24.332H136.128V51.6716L148.298 35.1181H156L146.038 48.5972L155.786 62.0764H148.139L142.217 53.8274L136.131 62.0764H129.669V24.332H129.666Z" fill="white"/>
<path d="M37.7896 23.3028L33.3545 27.7437L37.7896 32.1845L42.2246 27.7437L37.7896 23.3028Z" fill="#E39B4D"/>
<path d="M46.624 23.2984L42.189 27.7393L46.624 32.1801L51.0591 27.7393L46.624 23.2984Z" fill="white"/>
<path d="M93.5624 3.21385V20.5853L91.5098 22.6406V0.5L93.0293 1.9557C93.3686 2.28151 93.5624 2.73901 93.5624 3.21385Z" fill="#E39B4D"/>
<path d="M88.9453 0.513672V22.5711C88.9453 22.6681 88.8657 22.7478 88.7687 22.7478H64.6287C64.5318 22.7478 64.4937 22.675 64.4902 22.6543C64.4798 22.63 64.4556 22.5537 64.5248 22.4879L64.7533 22.2383H64.7464L70.7866 16.4467H70.745L74.6738 12.6792C74.8849 12.4782 75.1618 12.3638 75.4526 12.3638H82.1332C82.417 12.3638 82.6524 12.596 82.6524 12.8837V15.9268C82.6524 16.211 82.4205 16.4467 82.1332 16.4467H72.4065C72.1227 16.4467 71.8458 16.5576 71.6415 16.7552L70.2431 18.0965C70.1427 18.1936 70.1116 18.3322 70.167 18.4604C70.2154 18.5852 70.3366 18.6649 70.4716 18.6649H86.8892V3.3419C86.8892 2.88786 87.0657 2.45115 87.3807 2.12881L88.9453 0.513672Z" fill="#E39B4D"/>
<path d="M103.505 8.92372L102.348 10.1035L103.526 11.2617L104.683 10.0819L103.505 8.92372Z" fill="#E39B4D"/>
<path d="M100.724 8.91537L99.5659 10.0938L100.743 11.2534L101.901 10.075L100.724 8.91537Z" fill="#E39B4D"/>
<path d="M80.9701 10.0658V11.324C80.9701 11.3482 80.9493 11.369 80.9251 11.369H75.8125L75.7987 11.3794H75.4802L75.4941 11.369H75.4595L76.3456 10.506C76.3456 10.506 76.3664 10.4921 76.3768 10.4921H80.662V10.0762H77.1452H76.7852L77.3217 9.54246L77.3113 9.53206L79.049 7.83027C79.049 7.83027 79.0698 7.81641 79.0801 7.81641H80.9182C80.9424 7.81641 80.9632 7.8372 80.9632 7.86146V8.68983H80.7209H78.4363C78.4225 8.68983 78.4121 8.6933 78.4052 8.70369L77.9136 9.19586H80.7416H80.9666V10.0658H80.9701Z" fill="#E39B4D"/>
<path d="M80.9666 10.0658V9.19586H80.7416H77.9136L78.4052 8.70369C78.4052 8.70369 78.4259 8.68983 78.4363 8.68983H80.7209H80.9632V7.86146C80.9632 7.8372 80.9424 7.81641 80.9182 7.81641H79.0801C79.0801 7.81641 79.0559 7.81987 79.049 7.83027L77.3113 9.53206L77.3217 9.54246L76.7852 10.0762H77.1452H80.662V10.4921H76.3768C76.3768 10.4921 76.3525 10.4956 76.3456 10.506L75.4595 11.369H75.4941L75.4802 11.3794H75.7987L75.8125 11.369H80.9251C80.9493 11.369 80.9701 11.3482 80.9701 11.324V10.0658H80.9666ZM79.1494 7.96891H80.7693C80.7935 7.96891 80.8143 7.9897 80.8143 8.01397V8.48534C80.8143 8.5096 80.7935 8.53039 80.7693 8.53039H78.554L79.1182 7.97931C79.1251 7.97237 79.139 7.96544 79.1494 7.96544V7.96891ZM80.8143 11.168C80.8143 11.1923 80.7935 11.2131 80.7693 11.2131H75.8402L76.4079 10.6585C76.4079 10.6585 76.4287 10.6446 76.4391 10.6446H80.7659C80.7901 10.6446 80.8109 10.6654 80.8109 10.6897V11.1645L80.8143 11.168ZM80.8143 9.87172C80.8143 9.89598 80.7935 9.91678 80.7693 9.91678H77.1625L77.7059 9.36569C77.7129 9.35529 77.7267 9.35183 77.7371 9.35183H80.7693C80.7935 9.35183 80.8143 9.37262 80.8143 9.39689V9.87172Z" fill="#E39B4D"/>
<path d="M96.0169 19.1919V19.5974L86.7991 28.8273C86.6087 29.0179 86.3456 29.1253 86.0791 29.1253H57.6469C57.6261 29.1253 57.6088 29.1149 57.6019 29.1011C57.6019 29.0942 57.5915 29.0803 57.5949 29.0595L61.7591 25.0667C61.7937 25.0528 61.8214 25.0286 61.8525 25.0078C61.8733 24.9939 61.9148 24.9627 61.9287 24.9627H90.2605L96.0203 19.1954L96.0169 19.1919Z" fill="#E39B4D"/>
<path d="M124.221 29.2257H110.285L108.585 27.5586L106.952 29.2257H96.8373C96.5777 29.2257 96.325 29.1252 96.1381 28.945L92.8601 25.8256L91.8667 24.8759L93.5628 23.1846V24.3283C93.5628 24.7754 93.9297 25.1428 94.3762 25.1428H119.759L117.371 22.7513H98.8865C98.4469 22.7513 98.0869 22.3909 98.0869 21.9507V13.1645C98.0869 12.7243 98.4469 12.3604 98.89 12.3604H106.408C106.716 12.3604 107.017 12.4401 107.277 12.5891L111.109 16.2665C111.116 16.3081 111.109 16.3427 111.085 16.3774C111.071 16.4017 111.033 16.4398 110.96 16.4398H99.378C99.115 16.4398 98.9038 16.6512 98.9038 16.9146V18.1901C98.9038 18.4501 99.115 18.6649 99.378 18.6649H113.611L124.328 28.945C124.432 29.0455 124.363 29.2223 124.217 29.2223L124.221 29.2257Z" fill="#E39B4D"/>
<path d="M109.752 29.3924L109.61 29.5379L108.613 30.5534L107.578 29.5379L107.45 29.4131L107.477 29.382L108.592 28.2451L109.745 29.382L109.752 29.3924Z" fill="#E39B4D"/>
</g>
<defs>
<clipPath id="clip0_112_158">
<rect width="156" height="75" fill="white" transform="translate(0 0.5)"/>
</clipPath>
</defs>
</svg>
